<svg data-v-a1edb058="" width="16" height="16" viewBox="0 0 16 16" fill="none" xmlns="http://www.w3.org/2000/svg"><g clip-path="url(#clip0_1221_53)"><path d="M5.25204 4.48403L7.17622 0.507863C7.24984 0.354872 7.36389 0.226152 7.50539 0.136363C7.64689 0.0465752 7.81014 -0.000670824 7.97656 7.19629e-06C8.14297 0.000685217 8.30586 0.04926 8.44665 0.140198C8.58745 0.231137 8.7005 0.360783 8.77293 0.514369L10.5892 4.35002C10.6608 4.50382 10.7693 4.63653 10.9044 4.73573C11.0396 4.83493 11.1971 4.8974 11.3622 4.91729L15.1649 5.3922C15.3431 5.41631 15.5112 5.49121 15.65 5.60839C15.7888 5.72556 15.8927 5.88031 15.95 6.05503C16.0072 6.22975 16.0155 6.41743 15.9739 6.59674C15.9322 6.77605 15.8424 6.93978 15.7145 7.06932L12.7063 10.1477C12.6458 10.2092 12.5999 10.2841 12.5721 10.3667C12.5444 10.4493 12.5356 10.5373 12.5464 10.6239L13.0478 14.7783C13.0839 15.0618 13.0091 15.3485 12.8398 15.5756C12.6705 15.8028 12.4204 15.9521 12.1441 15.991C11.9282 16.0203 11.7089 15.9779 11.5183 15.87L8.34266 14.0679C8.2299 14.0032 8.10317 13.9684 7.97396 13.9666C7.84475 13.9648 7.71714 13.996 7.60269 14.0575L4.30898 15.8114C4.19854 15.8695 4.0779 15.9045 3.95413 15.9142C3.83035 15.924 3.70592 15.9084 3.5881 15.8683C3.47029 15.8282 3.36145 15.7644 3.26794 15.6807C3.17444 15.597 3.09816 15.495 3.04354 15.3808C2.95447 15.201 2.92167 14.9974 2.94962 14.7979L3.21108 12.8891C3.34054 11.9563 3.89648 11.1457 4.70245 10.7176L8.35789 8.78157C8.40449 8.75583 8.43953 8.71255 8.45563 8.66086C8.47173 8.60917 8.46763 8.55309 8.4442 8.50443C8.42603 8.46626 8.3967 8.43485 8.36031 8.41456C8.32391 8.39428 8.28225 8.38612 8.24112 8.39124L3.76828 9.0587C3.42938 9.10822 3.08411 9.08448 2.75469 8.98903C2.42527 8.89357 2.11898 8.7285 1.85552 8.50443L0.367962 7.24366C0.163022 7.06833 0.0329532 6.8179 0.00545299 6.54572C-0.0220472 6.27354 0.0551943 6.0011 0.220729 5.78643C0.381913 5.5816 0.613597 5.44795 0.868046 5.41301L4.68468 4.90559C4.80565 4.88818 4.92062 4.84066 5.01952 4.76717C5.11843 4.69368 5.19826 4.59646 5.25204 4.48403Z" fill="url(#paint0_linear_1221_53)"></path></g><defs><linearGradient id="paint0_linear_1221_53" x1="0" y1="0" x2="16" y2="16" gradientUnits="userSpaceOnUse"><stop stop-color="#FDD21A"></stop><stop offset="1" stop-color="#E47B03"></stop></linearGradient><clipPath id="clip0_1221_53"><rect width="16" height="16" fill="white"></rect></clipPath></defs></svg>